<svg width="34" height="25" viewBox="0 0 34 25" fill="none" xmlns="http://www.w3.org/2000/svg">
<path d="M33.9955 3.62891L33.9962 3.62816L33.9955 3.62871V2.81333C33.9955 1.26604 32.7421 0 31.2101 0L31.2093 0.000757245L31.2077 0.00199721L31.2101 0H2.78538L2.79636 0.00902127L2.78538 0.000757245C1.2535 0.000757245 0 1.2668 0 2.81415V22.0329C0 23.5802 1.25343 24.8462 2.78538 24.8462H3.77693H30.134V24.8455C33.056 24.8112 33.9336 24.0809 34 22.0351L33.9955 3.62891ZM29.1349 0.688664L16.9527 9.7523L4.84968 0.688664H29.1349ZM4.46576 7.73114L15.7502 15.5822L15.7615 15.5901L4.45928 23.5281L4.46576 7.73114ZM4.75743 24.1575L16.3584 16.0096L16.5619 16.1527C16.6789 16.2349 16.8152 16.2761 16.9514 16.2761C17.0865 16.2761 17.5495 16.0075 17.5495 16.0075L29.1537 24.1575H4.75743ZM29.4447 23.5232L18.1494 15.5902L24.4489 11.2074L29.4447 7.73156V23.5232V23.5232Z" fill="url(#paint0_linear)"/>
<defs>
<linearGradient id="paint0_linear" x1="17" y1="24.8462" x2="17" y2="0" gradientUnits="userSpaceOnUse">
<stop stop-color="#F0A638"/>
<stop offset="1" stop-color="#F5D668"/>
</linearGradient>
</defs>
</svg>
