<svg width="30" height="30" viewBox="0 0 30 30" fill="none" xmlns="http://www.w3.org/2000/svg">
<path fill-rule="evenodd" clip-rule="evenodd" d="M15 0C6.71683 0 0 6.8854 0 15.3797C0 22.1748 4.298 27.9397 10.2579 29.9735C11.0075 30.1158 11.2828 29.6397 11.2828 29.2335C11.2828 28.867 11.2691 27.6552 11.2625 26.3701C7.08951 27.3006 6.20895 24.5555 6.20895 24.5555C5.52655 22.7779 4.54352 22.3051 4.54352 22.3051C3.18244 21.3505 4.64612 21.3702 4.64612 21.3702C6.15221 21.4787 6.94546 22.9554 6.94546 22.9554C8.28328 25.3064 10.4545 24.6266 11.3106 24.2337C11.4452 23.2398 11.8338 22.5611 12.2629 22.1771C8.93115 21.7883 5.42865 20.4694 5.42865 14.5763C5.42865 12.8974 6.01468 11.5253 6.9743 10.4482C6.81858 10.0607 6.30509 8.49658 7.11964 6.37801C7.11964 6.37801 8.37931 5.9649 11.2455 7.95471C12.4421 7.6139 13.7254 7.443 15.0001 7.43707C16.2748 7.443 17.559 7.6139 18.7577 7.95471C21.6208 5.9649 22.8786 6.37801 22.8786 6.37801C23.6951 8.49658 23.1816 10.0607 23.0258 10.4482C23.9877 11.5253 24.5696 12.8973 24.5696 14.5763C24.5696 20.4836 21.0605 21.784 17.7202 22.1649C18.2582 22.6422 18.7375 23.5781 18.7375 25.0129C18.7375 27.0707 18.7204 28.7269 18.7204 29.2335C18.7204 29.6429 18.9903 30.1225 19.7505 29.9715C25.7074 27.9356 30 22.1726 30 15.3797C30 6.8854 23.2841 0 15 0Z" fill="url(#paint0_linear)"/>
<defs>
<linearGradient id="paint0_linear" x1="15" y1="30" x2="15" y2="0" gradientUnits="userSpaceOnUse">
<stop stop-color="#F0A638"/>
<stop offset="1" stop-color="#F5D668"/>
</linearGradient>
</defs>
</svg>
