<svg width="331" height="171" viewBox="0 0 331 171" fill="none" xmlns="http://www.w3.org/2000/svg">
<path d="M134 0.532227V46.9131H179V0.532227H134ZM158.489 36.7053C158.489 41.219 155.917 43.2793 152.171 43.2793C148.786 43.2793 146.827 41.478 145.823 39.2936L149.268 37.1505C149.931 38.3618 150.533 39.3866 151.99 39.3866C153.376 39.3866 154.26 38.8276 154.26 36.6432V21.8281H158.489V36.7053ZM168.493 43.2793C164.566 43.2793 162.025 41.3536 160.789 38.8276L164.235 36.7776C165.139 38.2996 166.324 39.4279 168.403 39.4279C170.151 39.4279 171.276 38.5273 171.276 37.2747C171.276 35.7838 170.131 35.2561 168.192 34.3759L167.137 33.9101C164.084 32.5745 162.065 30.8869 162.065 27.3361C162.065 24.0645 164.486 21.5798 168.252 21.5798C170.944 21.5798 172.873 22.5426 174.259 25.0687L170.964 27.2428C170.241 25.9072 169.458 25.3794 168.242 25.3794C167.007 25.3794 166.223 26.187 166.223 27.2428C166.223 28.5473 167.007 29.0755 168.825 29.8931L169.879 30.359C173.475 31.943 175.494 33.5686 175.494 37.2127C175.495 41.1259 172.501 43.2793 168.493 43.2793Z" fill="url(#paint0_linear)"/>
<path fill-rule="evenodd" clip-rule="evenodd" d="M3.74431 122.321H6.25445V125H9V117H6.25445V119.644H3.74431V117H1V125H3.74431V122.321ZM12.2318 125H14.7682V119.655H17V117H10V119.655H12.2318V125ZM22.4548 123.88L20.6135 121.037V125H18V117H20.786L22.4994 119.815L24.2128 117H27V125H24.337V121.037L22.4994 123.88H22.4548ZM35 122.357H30.909V117H28V125H35V122.357ZM3.27771 166.017L0 128.127H36L32.7161 166.019L17.9912 170.226L3.27771 166.017ZM17.9995 140.518H28.889L29.2914 135.873H17.9995H6.70648L7.92424 149.927H18.0005H23.5513L23.0278 155.954L18.0005 157.353L17.9943 157.355L12.9722 155.956L12.637 152.084H8.11151L8.75609 159.549L17.9933 162.19L17.9995 162.188L27.2429 159.549L28.4793 145.277H17.9995H12.0462L11.6344 140.518H17.9995Z" fill="url(#paint1_linear)"/>
<path fill-rule="evenodd" clip-rule="evenodd" d="M54.4316 44C56.3344 44 57.4269 43.1717 58.2371 42.0467L56.4449 40.761C55.9293 41.3915 55.4014 41.8118 54.5053 41.8118C53.3022 41.8118 52.4552 40.7981 52.4552 39.5V39.4753C52.4552 38.2143 53.3022 37.1882 54.5053 37.1882C55.3278 37.1882 55.8924 37.5838 56.3835 38.2019L58.1758 36.8049C57.4147 35.7418 56.2853 35 54.5298 35C51.9273 35 50 36.978 50 39.5V39.5247C50 42.1085 51.9764 44 54.4316 44ZM62.6377 43.9753C64.7246 43.9753 66.1118 42.9244 66.1118 41.1566V41.1319C66.1118 39.5124 64.8842 38.8695 62.9077 38.4368C61.717 38.1648 61.4224 37.9918 61.4224 37.5962V37.5714C61.4224 37.2624 61.7047 37.0151 62.2817 37.0151C63.0428 37.0151 63.9021 37.3118 64.6878 37.8681L65.8785 36.1745C64.9456 35.4203 63.8039 35.0247 62.3431 35.0247C60.2807 35.0247 59.0163 36.1868 59.0163 37.794V37.8187C59.0163 39.5989 60.428 40.1181 62.2571 40.5385C63.4233 40.8104 63.7057 41.0082 63.7057 41.3668V41.3915C63.7057 41.7624 63.362 41.9849 62.7236 41.9849C61.7293 41.9849 60.784 41.6264 59.937 40.9464L58.6112 42.5412C59.6669 43.4931 61.1155 43.9753 62.6377 43.9753ZM74 41.1566C74 42.9244 72.6128 43.9753 70.5259 43.9753C69.0037 43.9753 67.5551 43.4931 66.4994 42.5412L67.8252 40.9464C68.6723 41.6264 69.6175 41.9849 70.6118 41.9849C71.2502 41.9849 71.5939 41.7624 71.5939 41.3915V41.3668C71.5939 41.0082 71.3116 40.8104 70.1454 40.5385C68.3162 40.1181 66.9045 39.5989 66.9045 37.8187V37.794C66.9045 36.1868 68.1689 35.0247 70.2313 35.0247C71.6921 35.0247 72.8338 35.4203 73.7668 36.1745L72.576 37.8681C71.7903 37.3118 70.931 37.0151 70.1699 37.0151C69.5929 37.0151 69.3106 37.2624 69.3106 37.5714V37.5962C69.3106 37.9918 69.6052 38.1648 70.796 38.4368C72.7724 38.8695 74 39.5124 74 41.1319V41.1566ZM48.2823 85.4414L45 47.4348H81.1053L77.8244 85.4414L63.0007 89.7224L48.2823 85.4414ZM60.6689 81.6172L70.9767 77.2066L74.3861 55.1875H55.0917L54.3354 60.0943H69.8224L69.3369 63.2489H53.8362L53.0909 68.1543H68.5819L67.708 73.7574L61.4785 76.4145L56.0668 73.7574L56.4374 71.3287H52.6313L51.7205 77.2066L60.6689 81.6172Z" fill="url(#paint2_linear)"/>
<path fill-rule="evenodd" clip-rule="evenodd" d="M308.556 152.553C308.094 152.723 307.596 152.815 307.076 152.815H304.924C302.508 152.815 300.565 150.803 300.565 148.321V141.626C300.565 139.118 302.517 137.131 304.924 137.131H307.076C309.492 137.131 311.435 139.143 311.435 141.626V148.321C311.435 149.453 311.037 150.479 310.38 151.264L312.017 152.951L310.48 154.536L308.556 152.553ZM306.637 150.575H304.911C303.701 150.575 302.739 149.572 302.739 148.335V141.612C302.739 140.366 303.711 139.372 304.911 139.372H307.089C308.299 139.372 309.261 140.375 309.261 141.612V148.335C309.261 148.838 309.102 149.3 308.835 149.672L305.868 146.614L304.331 148.198L306.637 150.575ZM287.537 125.409C283.927 125.409 281 128.417 281 132.129V157.818C281 161.529 283.904 164.537 287.537 164.537H324.463C328.073 164.537 331 161.53 331 157.818V132.129C331 128.418 328.096 125.409 324.463 125.409H287.537ZM291.88 137.131C289.473 137.131 287.522 139.12 287.522 141.612C287.522 144.087 289.452 146.094 291.87 146.094H294.023C295.235 146.094 296.217 147.088 296.217 148.334C296.217 149.572 295.255 150.575 294.046 150.575H291.867C290.668 150.575 289.696 149.553 289.696 148.344V148.319H287.522V148.332C287.522 150.808 289.465 152.815 291.88 152.815H294.033C296.44 152.815 298.391 150.826 298.391 148.334C298.391 145.859 296.461 143.853 294.043 143.853H291.89C290.678 143.853 289.696 142.859 289.696 141.612C289.696 140.375 290.658 139.372 291.867 139.372H294.046C295.245 139.372 296.217 140.387 296.217 141.612H298.391C298.391 139.138 296.448 137.131 294.033 137.131H291.88ZM324.478 150.575V152.815H313.609V137.131H315.783V150.575H324.478Z" fill="url(#paint3_linear)"/>
<path d="M255 60.3466C254.415 60.3466 253.835 60.4641 253.295 60.6924C252.754 60.9207 252.263 61.2553 251.849 61.6771C251.435 62.0989 251.107 62.5997 250.883 63.1509C250.659 63.702 250.544 64.2928 250.544 64.8893C250.544 65.4859 250.659 66.0766 250.883 66.6278C251.107 67.1789 251.435 67.6797 251.849 68.1015C252.263 68.5234 252.754 68.858 253.295 69.0863C253.835 69.3146 254.415 69.4321 255 69.4321C255.585 69.4321 256.165 69.3146 256.705 69.0863C257.246 68.858 257.737 68.5234 258.151 68.1015C258.565 67.6797 258.893 67.1789 259.117 66.6278C259.341 66.0766 259.456 65.4859 259.456 64.8893C259.456 64.2928 259.341 63.702 259.117 63.1509C258.893 62.5997 258.565 62.0989 258.151 61.6771C257.737 61.2553 257.246 60.9207 256.705 60.6924C256.165 60.4641 255.585 60.3466 255 60.3466ZM242.517 73.926L241.533 73.6711C234.204 71.7831 230 68.5783 230 64.8808C230 61.1833 234.204 57.9786 241.533 56.0905L242.517 55.8378L242.794 56.8317C243.536 59.4391 244.486 61.9805 245.633 64.4306L245.844 64.883L245.633 65.3353C244.484 67.7846 243.534 70.3261 242.794 72.9342L242.517 73.926ZM241.077 58.4118C235.506 60.0068 232.087 62.447 232.087 64.8808C232.087 67.3125 235.506 69.7528 241.077 71.3498C241.758 69.141 242.581 66.98 243.54 64.8808C242.58 62.7821 241.757 60.6211 241.077 58.4118ZM267.483 73.926L267.206 72.9299C266.465 70.3227 265.514 67.7819 264.365 65.3332L264.154 64.8808L264.365 64.4285C265.514 61.9788 266.464 59.4374 267.206 56.8296L267.483 55.8357L268.469 56.0884C275.796 57.9764 280 61.1812 280 64.8808C280 68.5804 275.796 71.7831 268.469 73.6711L267.483 73.926ZM266.46 64.8808C267.46 67.0874 268.287 69.2558 268.923 71.3498C274.496 69.7528 277.912 67.3125 277.912 64.8808C277.912 62.447 274.494 60.0089 268.923 58.4118C268.243 60.621 267.42 62.782 266.46 64.8808ZM241.062 58.4012L240.785 57.4094C238.725 50.0059 239.35 44.7008 242.5 42.8488C245.59 41.0309 250.55 43.178 255.748 48.617L256.456 49.3582L255.748 50.0994C253.901 52.0567 252.213 54.164 250.702 56.4006L250.421 56.8105L249.931 56.853C247.273 57.0666 244.636 57.4999 242.046 58.1485L241.062 58.4012ZM245.012 44.3206C244.454 44.3206 243.96 44.4438 243.544 44.688C241.473 45.9049 241.106 50.1355 242.533 55.8442C244.753 55.3407 247.003 54.9853 249.269 54.7802C250.576 52.8855 252.004 51.0807 253.544 49.3773C250.294 46.1513 247.217 44.3206 245.012 44.3206ZM264.99 87.5648C264.987 87.5648 264.987 87.5648 264.99 87.5648C262.021 87.5648 258.208 85.286 254.252 81.1447L253.544 80.4035L254.252 79.6623C256.099 77.7044 257.785 75.5963 259.296 73.3589L259.577 72.949L260.065 72.9066C262.724 72.6941 265.363 72.2615 267.954 71.6132L268.938 71.3605L269.217 72.3544C271.273 79.7536 270.65 85.0609 267.5 86.9107C266.735 87.3517 265.868 87.5775 264.99 87.5648ZM256.456 80.3844C259.706 83.6104 262.783 85.4411 264.987 85.4411H264.99C265.546 85.4411 266.042 85.3179 266.456 85.0737C268.527 83.8567 268.896 79.6241 267.467 73.9154C265.246 74.4195 262.995 74.775 260.729 74.9794C259.424 76.8753 257.996 78.681 256.456 80.3844ZM268.938 58.4012L267.954 58.1485C265.363 57.498 262.725 57.0647 260.065 56.853L259.577 56.8105L259.296 56.4006C257.786 54.1633 256.099 52.0559 254.252 50.0994L253.544 49.3582L254.252 48.617C259.448 43.1801 264.406 41.033 267.5 42.8488C270.65 44.7008 271.275 50.0059 269.217 57.4073L268.938 58.4012ZM260.729 54.7802C263.108 55.001 265.369 55.36 267.467 55.8442C268.896 50.1355 268.527 45.9049 266.456 44.688C264.398 43.4753 260.529 45.3336 256.456 49.3773C257.995 51.0807 259.423 52.8856 260.729 54.7802ZM245.012 87.5648C244.133 87.5779 243.266 87.3521 242.5 86.9107C239.35 85.0609 238.725 79.7557 240.785 72.3544L241.06 71.3605L242.044 71.6132C244.45 72.2312 247.104 72.6666 249.929 72.9066L250.419 72.949L250.698 73.3589C252.209 75.596 253.897 77.704 255.744 79.6623L256.452 80.4035L255.744 81.1447C251.79 85.286 247.977 87.5648 245.012 87.5648ZM242.533 73.9154C241.104 79.6241 241.473 83.8567 243.544 85.0737C245.6 86.2693 249.467 84.4259 253.544 80.3844C252.005 78.6797 250.577 76.8742 249.269 74.9794C247.003 74.7751 244.753 74.4197 242.533 73.9154ZM255 75.2491C253.285 75.2491 251.523 75.1726 249.758 75.024L249.269 74.9815L248.987 74.5716C247.989 73.1096 247.051 71.6061 246.175 70.065C245.302 68.5226 244.491 66.944 243.746 65.3332L243.537 64.8808L243.746 64.4285C244.491 62.8176 245.301 61.239 246.175 59.6967C247.037 58.1761 247.985 56.6597 248.987 55.1901L249.269 54.7802L249.758 54.7377C253.247 54.4361 256.755 54.4361 260.244 54.7377L260.731 54.7802L261.01 55.1901C263.009 58.1146 264.763 61.2049 266.254 64.4285L266.465 64.8808L266.254 65.3332C264.766 68.5586 263.012 71.6492 261.01 74.5716L260.731 74.9815L260.244 75.024C258.479 75.1726 256.715 75.2491 255 75.2491ZM250.423 72.9469C253.506 73.1827 256.494 73.1827 259.579 72.9469C261.302 70.3798 262.831 67.6834 264.154 64.8808C262.833 62.0766 261.303 59.3799 259.577 56.8147C256.53 56.579 253.47 56.579 250.423 56.8147C248.696 59.3794 247.166 62.0761 245.846 64.8808C247.17 67.6831 248.7 70.3794 250.423 72.9469Z" fill="url(#paint4_linear)"/>
<defs>
<linearGradient id="paint0_linear" x1="156.174" y1="0.532227" x2="156.174" y2="46.9131" gradientUnits="userSpaceOnUse">
<stop stop-color="#4BAFFF"/>
<stop offset="1" stop-color="#0768B7"/>
</linearGradient>
<linearGradient id="paint1_linear" x1="17.7391" y1="117" x2="17.7391" y2="170.226" gradientUnits="userSpaceOnUse">
<stop stop-color="#4BAFFF"/>
<stop offset="1" stop-color="#0768B7"/>
</linearGradient>
<linearGradient id="paint2_linear" x1="62.791" y1="35" x2="62.791" y2="89.7224" gradientUnits="userSpaceOnUse">
<stop stop-color="#4BAFFF"/>
<stop offset="1" stop-color="#0768B7"/>
</linearGradient>
<linearGradient id="paint3_linear" x1="305.638" y1="125.409" x2="305.638" y2="164.537" gradientUnits="userSpaceOnUse">
<stop stop-color="#4BAFFF"/>
<stop offset="1" stop-color="#0768B7"/>
</linearGradient>
<linearGradient id="paint4_linear" x1="254.638" y1="42.2153" x2="254.638" y2="87.5654" gradientUnits="userSpaceOnUse">
<stop stop-color="#4BAFFF"/>
<stop offset="1" stop-color="#0768B7"/>
</linearGradient>
</defs>
</svg>
